<svg width="24" height="24" viewBox="0 0 24 24" fill="none" xmlns="http://www.w3.org/2000/svg">
<path d="M17.1294 1H6.4235C3.46715 1 1.07056 3.39659 1.07056 6.35294V17.0588C1.07056 20.0152 3.46715 22.4118 6.4235 22.4118H17.1294C20.0857 22.4118 22.4823 20.0152 22.4823 17.0588V6.35294C22.4823 3.39659 20.0857 1 17.1294 1Z" stroke="#FEFCFD" stroke-width="2" stroke-linecap="round" stroke-linejoin="round"/>
<path d="M16.0588 11.0314C16.1909 11.9224 16.0387 12.8324 15.6239 13.6319C15.209 14.4314 14.5526 15.0797 13.7481 15.4847C12.9435 15.8897 12.0317 16.0306 11.1424 15.8875C10.2531 15.7444 9.4316 15.3246 8.79468 14.6876C8.15777 14.0507 7.7379 13.2292 7.5948 12.3399C7.4517 11.4506 7.59265 10.5388 7.99762 9.73425C8.40258 8.92968 9.05092 8.27329 9.85044 7.85844C10.65 7.44359 11.5599 7.2914 12.4509 7.42352C13.3598 7.55829 14.2012 7.98179 14.8508 8.63147C15.5005 9.28115 15.924 10.1226 16.0588 11.0314Z" stroke="#FEFCFD" stroke-width="2" stroke-linecap="round" stroke-linejoin="round"/>
<path d="M17.6647 5.81765H17.6761" stroke="#FEFCFD" stroke-width="2" stroke-linecap="round" stroke-linejoin="round"/>
</svg>
