<svg width="113" height="115" viewBox="0 0 113 115" fill="none" xmlns="http://www.w3.org/2000/svg">
<path d="M29.5534 112.214H13.0214C10.0983 112.214 7.29498 111.052 5.22808 108.985C3.16117 106.919 2 104.115 2 101.192V62.6174C2 59.6944 3.16117 56.8911 5.22808 54.8242C7.29498 52.7573 10.0983 51.5961 13.0214 51.5961H29.5534M68.1281 40.5747V18.532C68.1281 14.1475 66.3864 9.94248 63.286 6.84212C60.1856 3.74176 55.9806 2 51.5961 2L29.5534 51.5961V112.214H91.7138C94.3718 112.244 96.951 111.312 98.9764 109.59C101.002 107.869 102.337 105.473 102.735 102.845L110.34 53.2493C110.58 51.6697 110.473 50.0568 110.028 48.5225C109.582 46.9882 108.808 45.569 107.76 44.3634C106.712 43.1578 105.414 42.1945 103.956 41.5403C102.499 40.8861 100.916 40.5566 99.3185 40.5747H68.1281Z" stroke="#DFA82E" stroke-width="4" stroke-linecap="round" stroke-linejoin="round"/>
</svg>
