<svg width="26" height="22" viewBox="0 0 26 22" fill="none" xmlns="http://www.w3.org/2000/svg">
<path d="M24.5529 1.36471C23.5277 2.08787 22.3926 2.64097 21.1913 3.00271C20.5465 2.26134 19.6896 1.73587 18.7365 1.49738C17.7833 1.25889 16.7799 1.31888 15.862 1.66924C14.9441 2.0196 14.1559 2.64342 13.604 3.45633C13.0522 4.26925 12.7633 5.23203 12.7765 6.21447V7.28506C10.8951 7.33385 9.03078 6.91658 7.34967 6.07042C5.66856 5.22426 4.22281 3.97548 3.14118 2.4353C3.14118 2.4353 -1.14118 12.0706 8.49412 16.3529C6.28927 17.8496 3.66272 18.6 1 18.4941C10.6353 23.8471 22.4118 18.4941 22.4118 6.18236C22.4108 5.88415 22.3821 5.58667 22.3261 5.29377C23.4188 4.21621 24.1898 2.85573 24.5529 1.36471V1.36471Z" stroke="#FEFCFD" stroke-width="2" stroke-linecap="round" stroke-linejoin="round"/>
</svg>
